<?xml version="1.0" encoding="UTF-8" standalone="no"?>
<svg style="background-color: rgb(255, 255, 255);" width="127px" height="127px">
        <g transform="matrix(1.1209388,0,0,1.1169861,-7.2300546,-5.2022764)" id="g6">
          <rect x="6.5" y="5" width="113.5" height="113.5" pointer-events="none" id="rect8" style="fill:#a1a1a1;stroke:none"/>
          <rect x="45" y="35" width="55" height="46" pointer-events="none" id="rect10" style="fill:#ffffff;stroke:#ff0000;stroke-width:1.84000003"/>
          <path d="M 6.5,118 40,87" stroke-miterlimit="10" pointer-events="none" id="path12" style="fill:none;stroke:#ff0000;stroke-width:1.84000003;stroke-miterlimit:10"/>
          <path d="m 44.59,82.49 -2.61,7.82 -1.3,-3.91 -3.91,-1.3 z" stroke-miterlimit="10" pointer-events="none" id="path14" style="fill:#ff0000;stroke:#ff0000;stroke-width:1.84000003;stroke-miterlimit:10"/>
          <path d="M 119,118 103.73,87.84" stroke-miterlimit="10" pointer-events="none" id="path16" style="fill:none;stroke:#ff0000;stroke-width:1.84000003;stroke-miterlimit:10"/>
          <path d="m 101.29,82.88 6.56,4.98 -4.12,-0.02 -2.49,3.28 z" stroke-miterlimit="10" pointer-events="none" id="path18" style="fill:#ff0000;stroke:#ff0000;stroke-width:1.84000003;stroke-miterlimit:10"/>
          <path d="M 6.5,5 39.94,32.33" stroke-miterlimit="10" pointer-events="none" id="path20" style="fill:none;stroke:#ff0000;stroke-width:1.84000003;stroke-miterlimit:10"/>
          <path d="m 44.39,35.61 -8.12,-1.41 3.67,-1.87 0.71,-4.06 z" stroke-miterlimit="10" pointer-events="none" id="path22" style="fill:#ff0000;stroke:#ff0000;stroke-width:1.84000003;stroke-miterlimit:10"/>
          <path d="M 119,5 104.44,29.42" stroke-miterlimit="10" pointer-events="none" id="path24" style="fill:none;stroke:#ff0000;stroke-width:1.84000003;stroke-miterlimit:10"/>
          <path d="m 101.29,33.97 1.17,-8.16 1.98,3.61 4.07,0.59 z" stroke-miterlimit="10" pointer-events="none" id="path26" style="fill:#ff0000;stroke:#ff0000;stroke-width:1.84000003;stroke-miterlimit:10"/>
        </g>
</svg>
