<?xml version="1.0" encoding="UTF-8" standalone="no"?>
<svg
   width="127px"
   height="127px"
   style="background-color: rgb(255, 255, 255);">
  <defs	
	id="defs2" />
	<g
		id="g46"
		transform="matrix(1.0583333,0,0,1.0583333,-0.14583333,-7.2041667)">
		<g
			id="g26"
			transform="translate(0.5,0.5)">
			  <rect
				 id="rect4" transform="translate(2,3)" height="120" width="120" y="0" x="0" style="opacity:0.25;fill:none;stroke:none" />
			  <path
				 id="path6" pointer-events="none" transform="rotate(-90,60.5,60)" stroke-miterlimit="10" d="M 21,35 100,60 21,85 Z" style="fill:#000000;stroke:#000000;stroke-miterlimit:10" />
			  <rect
				 id="rect8" pointer-events="none" height="5" width="5" y="97" x="33" style="fill:#ff0000;stroke:#ff0000;stroke-width:2" />
			  <rect
				 id="rect10" pointer-events="none" height="5" width="5" y="97" x="82" style="fill:#ff0000;stroke:#ff0000;stroke-width:2" />
			  <rect
				 id="rect12" pointer-events="none" height="5" width="5"  y="17" x="58" style="fill:#ff0000;stroke:#ff0000;stroke-width:2" />
			  <rect
				 id="rect14" pointer-events="none" height="5" width="5" y="26" x="52" style="fill:#ff0000;stroke:#ff0000;stroke-width:2" />
			  <rect
				 id="rect16" pointer-events="none" height="5" width="5" y="25" x="61" style="fill:#ff0000;stroke:#ff0000;stroke-width:2" />
			  <rect
				 id="rect18" pointer-events="none" height="5" width="5" y="100" x="41" style="fill:#ff0000;stroke:#ff0000;stroke-width:2" />
			  <rect
				 id="rect20" pointer-events="none" height="5" width="5" y="89" x="36" style="fill:#ff0000;stroke:#ff0000;stroke-width:2" />
			  <rect
				 id="rect22" pointer-events="none" height="5" width="5" y="97" x="74" style="fill:#ff0000;stroke:#ff0000;stroke-width:2" />
			  <rect
				 id="rect24" pointer-events="none" height="5" width="5" y="89" x="84" style="fill:#ff0000;stroke:#ff0000;stroke-width:2" />
			<text x="5" y="20" font-size="20">Fa</text>
		</g>
	</g>
</svg>